<svg width="16" height="16" viewBox="0 0 16 16" fill="none" xmlns="http://www.w3.org/2000/svg">
<path d="M14.9392 15.4741L13.7231 3.89367C13.6976 3.65124 13.4933 3.46716 13.2495 3.46716H10.9639V2.94604C10.9639 1.32165 9.64222 0 8.01783 0C6.39332 0 5.07167 1.32165 5.07167 2.94604V3.46716H2.78603C2.54226 3.46716 2.33791 3.65124 2.3124 3.89367L1.09634 15.4741C1.0823 15.6082 1.12588 15.7422 1.21609 15.8425C1.30642 15.9427 1.43508 16 1.56997 16H14.4655C14.6005 16 14.7291 15.9427 14.8193 15.8425C14.9098 15.7422 14.9532 15.6082 14.9392 15.4741ZM6.02406 2.94604C6.02406 1.8468 6.91847 0.95239 8.01783 0.95239C9.11707 0.95239 10.0115 1.8468 10.0115 2.94604V3.46716H6.02406V2.94604ZM2.09878 15.0476L3.21486 4.41955H5.07167V5.46898C5.07167 5.73192 5.28493 5.94518 5.54787 5.94518C5.8108 5.94518 6.02406 5.73192 6.02406 5.46898V4.41955H10.0115V5.46898C10.0115 5.73192 10.2247 5.94518 10.4877 5.94518C10.7506 5.94518 10.9639 5.73192 10.9639 5.46898V4.41955H12.8207L13.9368 15.0476H2.09878Z" fill="white"/>
</svg>
