<svg width="16" height="16" viewBox="0 0 16 16" fill="none" xmlns="http://www.w3.org/2000/svg">
<path d="M14.9392 15.4741L13.7231 3.89367C13.6976 3.65124 13.4933 3.46716 13.2495 3.46716H10.9638V2.94604C10.9638 1.32165 9.64219 0 8.0178 0C6.39329 0 5.07164 1.32165 5.07164 2.94604V3.46716H2.786C2.54223 3.46716 2.33788 3.65124 2.31237 3.89367L1.0963 15.4741C1.08227 15.6082 1.12585 15.7422 1.21606 15.8425C1.30639 15.9427 1.43505 16 1.56994 16H14.4654C14.6004 16 14.7291 15.9427 14.8193 15.8425C14.9098 15.7422 14.9532 15.6082 14.9392 15.4741ZM6.02403 2.94604C6.02403 1.8468 6.91844 0.95239 8.0178 0.95239C9.11704 0.95239 10.0115 1.8468 10.0115 2.94604V3.46716H6.02403V2.94604ZM2.09874 15.0476L3.21483 4.41955H5.07164V5.46898C5.07164 5.73192 5.2849 5.94518 5.54784 5.94518C5.81077 5.94518 6.02403 5.73192 6.02403 5.46898V4.41955H10.0115V5.46898C10.0115 5.73192 10.2247 5.94518 10.4876 5.94518C10.7506 5.94518 10.9638 5.73192 10.9638 5.46898V4.41955H12.8207L13.9367 15.0476H2.09874Z" fill="#333333"/>
</svg>
