<svg width="12" height="10" viewBox="0 0 12 10" fill="none" xmlns="http://www.w3.org/2000/svg">
<path fill-rule="evenodd" clip-rule="evenodd" d="M11.7803 9.79079C11.4875 10.0697 11.0126 10.0697 10.7197 9.79079L6.21999 5.50508C5.92712 5.22613 5.92712 4.77387 6.21999 4.49492L10.7197 0.209209C11.0126 -0.0697375 11.4875 -0.0697375 11.7803 0.209209C12.0732 0.488155 12.0732 0.940416 11.7803 1.21936L7.81089 5L11.7803 8.78064C12.0732 9.05958 12.0732 9.51184 11.7803 9.79079Z" fill="#7F8B9C"/>
<path fill-rule="evenodd" clip-rule="evenodd" d="M5.78034 9.79079C5.48747 10.0697 5.01262 10.0697 4.71974 9.79079L0.219994 5.50508C-0.0728837 5.22613 -0.0728836 4.77387 0.219994 4.49492L4.71974 0.209209C5.01262 -0.0697375 5.48747 -0.0697375 5.78034 0.209209C6.07322 0.488155 6.07322 0.940416 5.78034 1.21936L1.81089 5L5.78034 8.78064C6.07322 9.05958 6.07322 9.51184 5.78034 9.79079Z" fill="#7F8B9C"/>
</svg>
