<svg width="21" height="22" viewBox="0 0 21 22" fill="none" xmlns="http://www.w3.org/2000/svg">
<path d="M10.5 5.60938C11.4375 5.60938 12.3281 5.89062 13.1719 6.35938C14.0156 6.82812 14.6719 7.48438 15.1406 8.32812C15.6094 9.17188 15.8906 10.0625 15.8906 11C15.8906 11.9844 15.6094 12.875 15.1406 13.7188C14.6719 14.5625 14.0156 15.2188 13.1719 15.6875C12.3281 16.1562 11.4375 16.3906 10.5 16.3906C9.51562 16.3906 8.625 16.1562 7.78125 15.6875C6.9375 15.2188 6.28125 14.5625 5.8125 13.7188C5.34375 12.875 5.10938 11.9844 5.10938 11C5.10938 10.0625 5.34375 9.17188 5.8125 8.32812C6.28125 7.48438 6.9375 6.82812 7.78125 6.35938C8.625 5.89062 9.51562 5.60938 10.5 5.60938ZM10.5 14.5156C11.4375 14.5156 12.2812 14.1875 12.9844 13.4844C13.6406 12.8281 14.0156 11.9844 14.0156 11C14.0156 10.0625 13.6406 9.21875 12.9844 8.51562C12.2812 7.85938 11.4375 7.48438 10.5 7.48438C9.51562 7.48438 8.67188 7.85938 8.01562 8.51562C7.3125 9.21875 6.98438 10.0625 6.98438 11C6.98438 11.9844 7.3125 12.8281 8.01562 13.4844C8.67188 14.1875 9.51562 14.5156 10.5 14.5156ZM17.3906 5.375C17.3906 5.04688 17.25 4.76562 17.0156 4.48438C16.7344 4.25 16.4531 4.10938 16.125 4.10938C15.75 4.10938 15.4688 4.25 15.2344 4.48438C14.9531 4.76562 14.8594 5.04688 14.8594 5.375C14.8594 5.75 14.9531 6.03125 15.2344 6.26562C15.4688 6.54688 15.75 6.64062 16.125 6.64062C16.4531 6.64062 16.7344 6.54688 16.9688 6.26562C17.2031 6.03125 17.3438 5.75 17.3906 5.375ZM20.9531 6.64062C20.9531 7.53125 21 8.98438 21 11C21 13.0625 20.9531 14.5156 20.9062 15.4062C20.8594 16.2969 20.7188 17.0469 20.5312 17.7031C20.25 18.5 19.7812 19.2031 19.2188 19.7656C18.6562 20.3281 17.9531 20.75 17.2031 21.0312C16.5469 21.2656 15.75 21.4062 14.8594 21.4531C13.9688 21.5 12.5156 21.5 10.5 21.5C8.4375 21.5 6.98438 21.5 6.09375 21.4531C5.20312 21.4062 4.45312 21.2656 3.79688 20.9844C3 20.75 2.29688 20.3281 1.73438 19.7656C1.17188 19.2031 0.75 18.5 0.46875 17.7031C0.234375 17.0469 0.09375 16.2969 0.046875 15.4062C0 14.5156 0 13.0625 0 11C0 8.98438 0 7.53125 0.046875 6.64062C0.09375 5.75 0.234375 4.95312 0.46875 4.29688C0.75 3.54688 1.17188 2.84375 1.73438 2.28125C2.29688 1.71875 3 1.25 3.79688 0.96875C4.45312 0.78125 5.20312 0.640625 6.09375 0.59375C6.98438 0.546875 8.4375 0.5 10.5 0.5C12.5156 0.5 13.9688 0.546875 14.8594 0.59375C15.75 0.640625 16.5469 0.78125 17.2031 0.96875C17.9531 1.25 18.6562 1.71875 19.2188 2.28125C19.7812 2.84375 20.25 3.54688 20.5312 4.29688C20.7188 4.95312 20.8594 5.75 20.9531 6.64062ZM18.7031 17.1875C18.8906 16.6719 18.9844 15.8281 19.0781 14.6562C19.0781 14 19.125 13.0156 19.125 11.75V10.25C19.125 8.98438 19.0781 8 19.0781 7.34375C18.9844 6.17188 18.8906 5.32812 18.7031 4.8125C18.3281 3.875 17.625 3.17188 16.6875 2.79688C16.1719 2.60938 15.3281 2.51562 14.1562 2.42188C13.4531 2.42188 12.4688 2.375 11.25 2.375H9.75C8.48438 2.375 7.5 2.42188 6.84375 2.42188C5.67188 2.51562 4.82812 2.60938 4.3125 2.79688C3.32812 3.17188 2.67188 3.875 2.29688 4.8125C2.10938 5.32812 1.96875 6.17188 1.92188 7.34375C1.875 8.04688 1.875 9.03125 1.875 10.25V11.75C1.875 13.0156 1.875 14 1.92188 14.6562C1.96875 15.8281 2.10938 16.6719 2.29688 17.1875C2.67188 18.1719 3.375 18.8281 4.3125 19.2031C4.82812 19.3906 5.67188 19.5312 6.84375 19.5781C7.5 19.625 8.48438 19.625 9.75 19.625H11.25C12.5156 19.625 13.5 19.625 14.1562 19.5781C15.3281 19.5312 16.1719 19.3906 16.6875 19.2031C17.625 18.8281 18.3281 18.125 18.7031 17.1875Z" fill="#333333"/>
</svg>
