<svg width="12" height="10" viewBox="0 0 12 10" fill="none" xmlns="http://www.w3.org/2000/svg">
<path fill-rule="evenodd" clip-rule="evenodd" d="M0.219658 0.209209C0.512534 -0.0697365 0.987382 -0.0697365 1.28026 0.209209L5.78001 4.49492C6.07288 4.77387 6.07288 5.22613 5.78001 5.50508L1.28026 9.79079C0.987382 10.0697 0.512534 10.0697 0.219658 9.79079C-0.0732192 9.51184 -0.0732192 9.05958 0.219658 8.78064L4.18911 5L0.219658 1.21936C-0.0732192 0.940416 -0.0732192 0.488155 0.219658 0.209209Z" fill="#7F8B9C"/>
<path fill-rule="evenodd" clip-rule="evenodd" d="M6.21966 0.209209C6.51253 -0.0697365 6.98738 -0.0697365 7.28026 0.209209L11.78 4.49492C12.0729 4.77387 12.0729 5.22613 11.78 5.50508L7.28026 9.79079C6.98738 10.0697 6.51253 10.0697 6.21966 9.79079C5.92678 9.51184 5.92678 9.05958 6.21966 8.78064L10.1891 5L6.21966 1.21936C5.92678 0.940416 5.92678 0.488155 6.21966 0.209209Z" fill="#7F8B9C"/>
</svg>
