<svg width="152" height="28" viewBox="0 0 152 28" fill="none" xmlns="http://www.w3.org/2000/svg">
<path d="M21.08 24.795C20.4209 25.335 19.3734 25.8751 17.9375 26.4151C16.5015 26.9551 14.9361 27.2252 13.2412 27.2252C10.5341 27.2252 8.18014 26.6382 6.17924 25.4642C4.17835 24.2901 2.64825 22.717 1.58895 20.7447C0.52965 18.7488 0 16.5652 0 14.1937C0 11.5874 0.52965 9.26289 1.58895 7.22013C2.64825 5.17736 4.13127 3.59245 6.038 2.46541C7.94474 1.31489 10.1457 0.739624 12.641 0.739624C14.2181 0.739624 15.6776 0.950944 17.0194 1.37359C18.3612 1.79623 19.5382 2.32453 20.5504 2.95849L18.5377 7.78365C16.6781 6.37484 14.7713 5.67044 12.8175 5.67044C11.4993 5.67044 10.2634 6.03438 9.10997 6.76227C7.95651 7.49015 7.03845 8.48805 6.35579 9.75598C5.67313 11.0004 5.3318 12.3857 5.3318 13.912C5.3318 15.579 5.64959 17.0465 6.28517 18.3145C6.92075 19.5589 7.82704 20.5333 9.00404 21.2377C10.181 21.9421 11.5581 22.2943 13.1353 22.2943C14.4065 22.2943 15.5482 22.0948 16.5604 21.6956C17.5726 21.273 18.373 20.7799 18.9614 20.2164L21.08 24.795Z" fill="#333333"/>
<path d="M43.935 1.02138V5.9522H31.3293V11.4818H42.4873V16.4126H31.3293V22.0126H44.4293V26.9434H26.2094V1.02138H43.935Z" fill="#333333"/>
<path d="M54.8463 1.02138V22.0126H67.0635V26.9434H49.7264V1.02138H54.8463Z" fill="#333333"/>
<path d="M85.1996 21.8717H76.584L74.4654 26.9434H69.4161L81.139 0H81.4215L93.1444 26.9434H87.2123L85.1996 21.8717ZM83.5047 17.5748L80.9977 11.2704L78.3848 17.5748H83.5047Z" fill="#333333"/>
<path d="M120.343 1.02138V28H120.202L102.017 11.6226L102.123 26.9434H96.9327V0H97.1446L115.294 16.6239L115.188 1.02138H120.343Z" fill="#333333"/>
<path d="M125.447 14.0176C125.447 11.6696 126.035 9.47421 127.212 7.43145C128.413 5.38868 130.025 3.76855 132.05 2.57107C134.098 1.35011 136.311 0.739624 138.688 0.739624C141.066 0.739624 143.267 1.35011 145.291 2.57107C147.339 3.76855 148.963 5.38868 150.164 7.43145C151.388 9.47421 152 11.6696 152 14.0176C152 16.4126 151.388 18.6197 150.164 20.639C148.963 22.6583 147.339 24.2667 145.291 25.4642C143.267 26.6382 141.066 27.2252 138.688 27.2252C136.287 27.2252 134.074 26.6382 132.05 25.4642C130.025 24.2667 128.413 22.6583 127.212 20.639C126.035 18.6197 125.447 16.4126 125.447 14.0176ZM130.743 14.0176C130.743 15.5203 131.096 16.9057 131.803 18.1736C132.532 19.4415 133.509 20.4512 134.733 21.2025C135.981 21.9304 137.358 22.2943 138.865 22.2943C140.324 22.2943 141.654 21.9304 142.855 21.2025C144.055 20.4512 144.997 19.4533 145.68 18.2088C146.362 16.9409 146.704 15.5438 146.704 14.0176C146.704 12.4679 146.35 11.0591 145.644 9.7912C144.938 8.52327 143.973 7.52537 142.749 6.79749C141.548 6.04612 140.206 5.67044 138.723 5.67044C137.24 5.67044 135.887 6.04612 134.663 6.79749C133.462 7.52537 132.509 8.52327 131.803 9.7912C131.096 11.0591 130.743 12.4679 130.743 14.0176Z" fill="#333333"/>
</svg>
