<svg width="14" height="14" viewBox="0 0 14 14" fill="none" xmlns="http://www.w3.org/2000/svg">
<path fill-rule="evenodd" clip-rule="evenodd" d="M4.55566 5.00297C4.55566 3.65523 5.65215 2.55875 6.99989 2.55875C8.34766 2.55875 9.44412 3.65523 9.44412 5.00297C9.44412 6.35071 8.34763 7.44719 6.99989 7.44719C5.65215 7.44719 4.55566 6.35071 4.55566 5.00297ZM5.43545 5.003C5.43545 5.86565 6.13724 6.56744 6.99989 6.56744C7.86254 6.56744 8.56434 5.86565 8.56434 5.003C8.56434 4.14034 7.86254 3.43855 6.99989 3.43855C6.13724 3.43855 5.43545 4.14034 5.43545 5.003Z" fill="#1BC9BE"/>
<path fill-rule="evenodd" clip-rule="evenodd" d="M2.53413 7.26002C0.860076 3.9538 3.26897 0 6.99998 0C10.7327 0 13.1393 3.95506 11.4659 7.25996L8.89635 12.7901C8.14736 14.4021 5.85374 14.4045 5.10364 12.7901L2.53413 7.26002ZM10.678 6.86838C10.6781 6.86838 10.6777 6.86896 10.678 6.86838C12.0512 4.16654 10.099 0.879782 6.99998 0.879782C3.89925 0.879782 1.94968 4.16868 3.32203 6.86843C3.32225 6.86885 3.32201 6.86841 3.32203 6.86843C3.32265 6.86897 3.32321 6.87036 5.90149 12.4193C6.33707 13.3566 7.66337 13.3558 8.09853 12.4193C10.6396 6.95044 10.6777 6.86823 10.678 6.86838Z" fill="#1BC9BE"/>
</svg>
