<svg width="14" height="14" viewBox="0 0 14 14" fill="none" xmlns="http://www.w3.org/2000/svg">
<g clip-path="url(#clip0)">
<path d="M12.8766 9.1894C12.0195 9.1894 11.1779 9.05534 10.3804 8.79178C9.98277 8.65619 9.53006 8.76141 9.27066 9.02573L7.6965 10.2141C5.87092 9.23956 4.7464 8.11541 3.78521 6.30354L4.93857 4.77039C5.23822 4.47114 5.3457 4.03401 5.21693 3.62385C4.95224 2.82213 4.81779 1.98093 4.81779 1.12343C4.81782 0.503964 4.31386 0 3.69443 0H1.12335C0.503964 0 0 0.503964 0 1.12335C0 8.22365 5.77638 14 12.8766 14C13.4961 14 14 13.496 14 12.8766V10.3127C14 9.69336 13.496 9.1894 12.8766 9.1894ZM13.2222 12.8766C13.2222 13.0673 13.0673 13.2222 12.8766 13.2222C6.20513 13.2222 0.777802 7.79486 0.777802 1.12339C0.777802 0.93275 0.93275 0.777802 1.12339 0.777802H3.69447C3.88511 0.777802 4.04006 0.93275 4.04006 1.12339C4.04006 2.06409 4.18779 2.98732 4.47679 3.86196C4.51704 3.99109 4.48438 4.12475 4.35374 4.26074L3.01693 6.03119C2.92731 6.15005 2.91324 6.30919 2.98047 6.44171C4.07156 8.5863 5.39736 9.91211 7.55712 11.0188C7.68852 11.0875 7.84955 11.0731 7.96881 10.9831L9.77995 9.61096C9.87146 9.51945 10.0086 9.48679 10.1324 9.52893C11.0131 9.81983 11.9363 9.9672 12.8766 9.9672C13.0673 9.9672 13.2222 10.1221 13.2222 10.3128V12.8766Z" fill="#1BC9BE"/>
</g>
<defs>
<clipPath id="clip0">
<rect width="14" height="14" fill="white"/>
</clipPath>
</defs>
</svg>
