<svg width="11" height="15" viewBox="0 0 11 15" fill="none" xmlns="http://www.w3.org/2000/svg">
<path d="M5.82812 0.941406C3.01172 0.941406 0.25 2.80078 0.25 5.83594C0.25 7.75 1.31641 8.84375 1.97266 8.84375C2.24609 8.84375 2.41016 8.10547 2.41016 7.88672C2.41016 7.64062 1.75391 7.09375 1.75391 6.02734C1.75391 3.83984 3.42188 2.28125 5.58203 2.28125C7.46875 2.28125 8.83594 3.34766 8.83594 5.28906C8.83594 6.73828 8.26172 9.44531 6.375 9.44531C5.69141 9.44531 5.08984 8.95312 5.08984 8.26953C5.08984 7.23047 5.82812 6.21875 5.82812 5.15234C5.82812 3.34766 3.25781 3.67578 3.25781 5.86328C3.25781 6.32812 3.3125 6.82031 3.53125 7.25781C3.14844 8.87109 2.38281 11.3047 2.38281 12.9727C2.38281 13.4922 2.4375 13.9844 2.49219 14.5039C2.57422 14.6133 2.54688 14.6133 2.68359 14.5586C4.05078 12.6719 4.02344 12.2891 4.625 9.82812C4.98047 10.457 5.82812 10.8125 6.53906 10.8125C9.4375 10.8125 10.75 7.96875 10.75 5.42578C10.75 2.71875 8.39844 0.941406 5.82812 0.941406Z" fill="white"/>
</svg>
